# xmcd
#
# Track frame offsets: 
#        150
#        8894
#        34429
#        40534
#        50221
#        66005
#        96633
#        106737
#        137689
#        147362
#        165810
#        173988
#        205884
#        219693
#        228810
#        257977
#        280246
#        291355
#
# Disc length: 4022 seconds
#
# Revision: 2
# Processed by: cddbd v1.5.1PL0 Copyright (c) Steve Scherf et al.
# Submitted via: ExactAudioCopy v0.95a5
#
DISCID=100fb412
DTITLE=Andy Griffith - American Originals
DYEAR=1900
DGENRE=Country
TTITLE0=The Fishin' Hole
TTITLE1=What It Was, Was Football (Part I and II)
TTITLE2=Cindy
TTITLE3=Love Poems: To The Lovely Juanita Beasley
TTITLE4=Make Yourself Comfortable
TTITLE5=North Carolina, My Home State
TTITLE6=The Preacher And The Bear
TTITLE7=Romeo and Juliet (Part I and II)
TTITLE8=Love Poems: Togetherness
TTITLE9=Swan Lake
TTITLE10=Flop Eared Mule
TTITLE11=Hamlet
TTITLE12=The Discovery Of America
TTITLE13=Don't Look Back
TTITLE14=Opera Carmen
TTITLE15=Andy And Cleopatra
TTITLE16=The Midnight Special
TTITLE17=The Andy Griffith Theme
EXTD=
EXTT0=
EXTT1=
EXTT2=
EXTT3=
EXTT4=
EXTT5=
EXTT6=
EXTT7=
EXTT8=
EXTT9=
EXTT10=
EXTT11=
EXTT12=
EXTT13=
EXTT14=
EXTT15=
EXTT16=
EXTT17=
PLAYORDER=
